# xmcd
#
# Track frame offsets: 
#        150
#        12528
#        29023
#        44840
#        57668
#        71050
#        86543
#        102548
#        117774
#        139222
#        155172
#        168820
#
# Disc length: 2384 seconds
#
# Revision: 0
# Processed by: cddbd v1.5.2PL0 Copyright (c) Steve Scherf et al.
# Submitted via: ExactAudioCopy v1.3
#
DISCID=b4094e0c
DTITLE=Jim Lauderdale - London Southern
DYEAR=2017
DGENRE=Country
TTITLE0=Sweet Time
TTITLE1=I Love You More
TTITLE2=We've Only Got So Much Time Here
TTITLE3=You Came To Get Me
TTITLE4=What Have You Got To Lose
TTITLE5=If I Can't Resist
TTITLE6=Don't Let Yourself Get In The Way
TTITLE7=No Right Way To Be Wrong
TTITLE8=Different Kind Of Groove Some Time
TTITLE9=I Can't Do Without You
TTITLE10=Don't Shut Me Down
TTITLE11=This Is A Door
EXTD=
EXTT0=
EXTT1=
EXTT2=
EXTT3=
EXTT4=
EXTT5=
EXTT6=
EXTT7=
EXTT8=
EXTT9=
EXTT10=
EXTT11=
PLAYORDER=
